<svg width="11" height="18" viewBox="0 0 11 18" fill="none" xmlns="http://www.w3.org/2000/svg">
<path d="M5.8125 7.92188C6.5 8.10938 7.0625 8.29688 7.5 8.48438C7.96875 8.67188 8.45312 8.9375 8.95312 9.28125C9.45312 9.59375 9.82812 10 10.0781 10.5C10.3594 11 10.5 11.5938 10.5 12.2812C10.5 13.25 10.1719 14.0469 9.51562 14.6719C8.89062 15.2656 8.04688 15.6562 6.98438 15.8438V18H3.98438V15.8438C2.95312 15.625 2.09375 15.1875 1.40625 14.5312C0.75 13.875 0.390625 13.0312 0.328125 12H2.53125C2.65625 13.4062 3.64062 14.1094 5.48438 14.1094C6.45312 14.1094 7.14062 13.9375 7.54688 13.5938C7.98438 13.2188 8.20312 12.7969 8.20312 12.3281C8.20312 11.2031 7.20312 10.3906 5.20312 9.89062C2.07812 9.17188 0.515625 7.79688 0.515625 5.76562C0.515625 4.85938 0.84375 4.09375 1.5 3.46875C2.15625 2.8125 2.98438 2.375 3.98438 2.15625V0H6.98438V2.20312C8.01562 2.45312 8.79688 2.92188 9.32812 3.60938C9.89062 4.29688 10.1875 5.09375 10.2188 6H8.01562C7.95312 4.59375 7.10938 3.89062 5.48438 3.89062C4.67188 3.89062 4.01562 4.0625 3.51562 4.40625C3.04688 4.75 2.8125 5.20312 2.8125 5.76562C2.8125 6.67188 3.8125 7.39062 5.8125 7.92188Z" fill="#666666"/>
</svg>
