<svg width="24" height="24" viewBox="0 0 24 24" fill="none" xmlns="http://www.w3.org/2000/svg">
<path d="M18 16.0781C18.8125 16.0781 19.5 16.375 20.0625 16.9688C20.625 17.5312 20.9062 18.2031 20.9062 18.9844C20.9062 19.7969 20.6094 20.5 20.0156 21.0938C19.4531 21.6562 18.7812 21.9375 18 21.9375C17.2188 21.9375 16.5312 21.6562 15.9375 21.0938C15.375 20.5 15.0938 19.7969 15.0938 18.9844C15.0938 18.6719 15.1094 18.4531 15.1406 18.3281L8.0625 14.2031C7.46875 14.7344 6.78125 15 6 15C5.1875 15 4.48438 14.7031 3.89062 14.1094C3.29688 13.5156 3 12.8125 3 12C3 11.1875 3.29688 10.4844 3.89062 9.89062C4.48438 9.29688 5.1875 9 6 9C6.78125 9 7.46875 9.26562 8.0625 9.79688L15.0938 5.71875C15.0312 5.40625 15 5.17188 15 5.01562C15 4.20312 15.2969 3.5 15.8906 2.90625C16.4844 2.3125 17.1875 2.01562 18 2.01562C18.8125 2.01562 19.5156 2.3125 20.1094 2.90625C20.7031 3.5 21 4.20312 21 5.01562C21 5.82812 20.7031 6.53125 20.1094 7.125C19.5156 7.71875 18.8125 8.01562 18 8.01562C17.25 8.01562 16.5625 7.73438 15.9375 7.17188L8.90625 11.2969C8.96875 11.6094 9 11.8438 9 12C9 12.1562 8.96875 12.3906 8.90625 12.7031L16.0312 16.8281C16.5938 16.3281 17.25 16.0781 18 16.0781Z" fill="#666666"/>
</svg>
