<svg width="24" height="24" viewBox="0 0 24 24" fill="none" xmlns="http://www.w3.org/2000/svg">
<path d="M12.0938 18.5625C13.5938 17.2188 14.7031 16.2031 15.4219 15.5156C16.1406 14.8281 16.9219 14.0156 17.7656 13.0781C18.6094 12.1406 19.1875 11.3125 19.5 10.5938C19.8438 9.875 20.0156 9.17188 20.0156 8.48438C20.0156 7.48438 19.6719 6.65625 18.9844 6C18.3281 5.34375 17.5 5.01562 16.5 5.01562C15.7188 5.01562 14.9844 5.23438 14.2969 5.67188C13.6406 6.10938 13.1875 6.67188 12.9375 7.35938H11.0625C10.8125 6.67188 10.3438 6.10938 9.65625 5.67188C9 5.23438 8.28125 5.01562 7.5 5.01562C6.5 5.01562 5.65625 5.34375 4.96875 6C4.3125 6.65625 3.98438 7.48438 3.98438 8.48438C3.98438 9.17188 4.14062 9.875 4.45312 10.5938C4.79688 11.3125 5.39062 12.1406 6.23438 13.0781C7.07812 14.0156 7.85938 14.8281 8.57812 15.5156C9.29688 16.2031 10.4062 17.2188 11.9062 18.5625L12 18.6562L12.0938 18.5625ZM16.5 3C18.0625 3 19.3594 3.53125 20.3906 4.59375C21.4531 5.65625 21.9844 6.95312 21.9844 8.48438C21.9844 9.39062 21.8125 10.2812 21.4688 11.1562C21.125 12 20.4844 12.9531 19.5469 14.0156C18.6406 15.0781 17.8125 15.9688 17.0625 16.6875C16.3125 17.4062 15.1094 18.5156 13.4531 20.0156L12 21.3281L10.5469 20.0625C8.39062 18.125 6.82812 16.6719 5.85938 15.7031C4.92188 14.7344 4.04688 13.5938 3.23438 12.2812C2.42188 10.9688 2.01562 9.70312 2.01562 8.48438C2.01562 6.95312 2.53125 5.65625 3.5625 4.59375C4.625 3.53125 5.9375 3 7.5 3C9.3125 3 10.8125 3.70312 12 5.10938C13.1875 3.70312 14.6875 3 16.5 3Z" fill="#666666"/>
</svg>
