<svg width="24" height="24" viewBox="0 0 24 24" fill="none" xmlns="http://www.w3.org/2000/svg">
<path d="M12 21.3281L10.5469 20.0156C8.89062 18.5156 7.6875 17.4062 6.9375 16.6875C6.1875 15.9688 5.34375 15.0781 4.40625 14.0156C3.5 12.9531 2.875 12 2.53125 11.1562C2.1875 10.2812 2.01562 9.39062 2.01562 8.48438C2.01562 6.95312 2.53125 5.65625 3.5625 4.59375C4.625 3.53125 5.9375 3 7.5 3C9.3125 3 10.8125 3.70312 12 5.10938C13.1875 3.70312 14.6875 3 16.5 3C18.0625 3 19.3594 3.53125 20.3906 4.59375C21.4531 5.65625 21.9844 6.95312 21.9844 8.48438C21.9844 9.70312 21.5781 10.9688 20.7656 12.2812C19.9531 13.5938 19.0625 14.7344 18.0938 15.7031C17.1562 16.6719 15.6094 18.125 13.4531 20.0625L12 21.3281Z" fill="#666666"/>
</svg>
