<svg width="24" height="24" viewBox="0 0 24 24" fill="none" xmlns="http://www.w3.org/2000/svg">
<path d="M6.32812 17.6719C7.92188 19.2344 9.8125 20.0156 12 20.0156C14.1875 20.0156 16.0625 19.2344 17.625 17.6719C19.2188 16.0781 20.0156 14.1875 20.0156 12C20.0156 9.8125 19.2188 7.9375 17.625 6.375C16.0625 4.78125 14.1875 3.98438 12 3.98438C9.8125 3.98438 7.92188 4.78125 6.32812 6.375C4.76562 7.9375 3.98438 9.8125 3.98438 12C3.98438 14.1875 4.76562 16.0781 6.32812 17.6719ZM4.92188 4.96875C6.89062 3 9.25 2.01562 12 2.01562C14.75 2.01562 17.0938 3 19.0312 4.96875C21 6.90625 21.9844 9.25 21.9844 12C21.9844 14.75 21 17.1094 19.0312 19.0781C17.0938 21.0156 14.75 21.9844 12 21.9844C9.25 21.9844 6.89062 21.0156 4.92188 19.0781C2.98438 17.1094 2.01562 14.75 2.01562 12C2.01562 9.25 2.98438 6.90625 4.92188 4.96875ZM12.9844 6.98438V11.0156H17.0156V12.9844H12.9844V17.0156H11.0156V12.9844H6.98438V11.0156H11.0156V6.98438H12.9844Z" fill="#666666"/>
</svg>
