<svg width="18" height="19" viewBox="0 0 18 19" fill="none" xmlns="http://www.w3.org/2000/svg">
<path d="M15.9844 13V10.9844H14.0156V13H15.9844ZM15.9844 16.9844V15.0156H14.0156V16.9844H15.9844ZM9.98438 4.98438V3.01562H8.01562V4.98438H9.98438ZM9.98438 9.01562V7H8.01562V9.01562H9.98438ZM9.98438 13V10.9844H8.01562V13H9.98438ZM9.98438 16.9844V15.0156H8.01562V16.9844H9.98438ZM3.98438 9.01562V7H2.01562V9.01562H3.98438ZM3.98438 13V10.9844H2.01562V13H3.98438ZM3.98438 16.9844V15.0156H2.01562V16.9844H3.98438ZM12 9.01562H18V19H0V4.98438H6V3.01562L9 0.015625L12 3.01562V9.01562Z" fill="#666666"/>
</svg>
