<svg width="24" height="24" viewBox="0 0 24 24" fill="none" xmlns="http://www.w3.org/2000/svg">
<path d="M8.71875 13.4062C9.90625 13.125 11 12.9844 12 12.9844C13 12.9844 14.0938 13.125 15.2812 13.4062C16.4688 13.6875 17.5469 14.1562 18.5156 14.8125C19.5156 15.4688 20.0156 16.2031 20.0156 17.0156V20.0156H3.98438V17.0156C3.98438 16.2031 4.46875 15.4688 5.4375 14.8125C6.4375 14.1562 7.53125 13.6875 8.71875 13.4062ZM9.1875 5.20312C9.96875 4.39062 10.9062 3.98438 12 3.98438C13.0938 3.98438 14.0312 4.39062 14.8125 5.20312C15.5938 5.98438 15.9844 6.92188 15.9844 8.01562C15.9844 9.10938 15.5938 10.0469 14.8125 10.8281C14.0312 11.6094 13.0938 12 12 12C10.9062 12 9.96875 11.6094 9.1875 10.8281C8.40625 10.0469 8.01562 9.10938 8.01562 8.01562C8.01562 6.92188 8.40625 5.98438 9.1875 5.20312ZM16.0781 15.7031C14.7344 15.1719 13.375 14.9062 12 14.9062C10.625 14.9062 9.26562 15.1719 7.92188 15.7031C6.57812 16.2031 5.90625 16.6406 5.90625 17.0156V18.0938H18.0938V17.0156C18.0938 16.6406 17.4219 16.2031 16.0781 15.7031ZM13.5 6.51562C13.0938 6.10938 12.5938 5.90625 12 5.90625C11.4062 5.90625 10.9062 6.10938 10.5 6.51562C10.0938 6.92188 9.89062 7.42188 9.89062 8.01562C9.89062 8.60938 10.0938 9.10938 10.5 9.51562C10.9062 9.89062 11.4062 10.0781 12 10.0781C12.5938 10.0781 13.0938 9.89062 13.5 9.51562C13.9062 9.10938 14.1094 8.60938 14.1094 8.01562C14.1094 7.42188 13.9062 6.92188 13.5 6.51562Z" fill="#666666"/>
</svg>
