<svg width="24" height="24" viewBox="0 0 24 24" fill="none" xmlns="http://www.w3.org/2000/svg">
<path d="M11.7188 18.9844C13.0625 18.9844 14.1875 18.5312 15.0938 17.625C16.0312 16.6875 16.5 15.5469 16.5 14.2031C16.5 12.8281 16.3125 11.4844 15.9375 10.1719C14.9688 11.4531 13.4219 12.3125 11.2969 12.75C9.42188 13.1562 8.48438 14.1875 8.48438 15.8438C8.48438 16.7188 8.79688 17.4688 9.42188 18.0938C10.0469 18.6875 10.8125 18.9844 11.7188 18.9844ZM13.5 0.65625C15.5 2.28125 17.0781 4.26562 18.2344 6.60938C19.4219 8.92188 20.0156 11.3906 20.0156 14.0156C20.0156 16.2031 19.2344 18.0781 17.6719 19.6406C16.1094 21.2031 14.2188 21.9844 12 21.9844C9.78125 21.9844 7.89062 21.2031 6.32812 19.6406C4.76562 18.0781 3.98438 16.2031 3.98438 14.0156C3.98438 10.6406 5.0625 7.67188 7.21875 5.10938V5.48438C7.21875 6.51562 7.5625 7.39062 8.25 8.10938C8.9375 8.82812 9.79688 9.1875 10.8281 9.1875C11.8281 9.1875 12.6406 8.84375 13.2656 8.15625C13.9219 7.4375 14.25 6.54688 14.25 5.48438C14.25 4.85938 14.1875 4.14062 14.0625 3.32812C13.9375 2.51562 13.8125 1.875 13.6875 1.40625L13.5 0.65625Z" fill="#666666"/>
</svg>
